<svg width="31" height="30" viewBox="0 0 31 30" fill="none" xmlns="http://www.w3.org/2000/svg">
<path d="M14.0914 5.24697C15.2778 5.24697 16.2395 4.12661 16.2395 2.74458C16.2395 1.36255 15.2778 0.242188 14.0914 0.242188C12.9051 0.242188 11.9434 1.36255 11.9434 2.74458C11.9434 4.12661 12.9051 5.24697 14.0914 5.24697Z" fill="#263238"/>
<path d="M29.4311 18.2487L23.553 22.0895L23.9636 22.9424L29.8418 19.1017L29.4311 18.2487Z" fill="#263238"/>
<path d="M30.0268 19.3442L24.1487 23.1849L24.7588 24.4521L30.6369 20.6114L30.0268 19.3442Z" fill="#263238"/>
<path d="M28.1773 17.2093L22.9268 20.64L23.3961 21.6148L28.6466 18.1841L28.1773 17.2093Z" fill="#263238"/>
<path d="M30.2974 21.3678L24.8899 24.901L25.5 26.1682L30.9075 22.635L30.2974 21.3678Z" fill="#263238"/>
<path d="M26.6178 13.9077L21.3672 17.3384L21.9773 18.6056L27.2279 15.1749L26.6178 13.9077Z" fill="#263238"/>
<path d="M27.772 15.3492L22.103 19.0532L22.7131 20.3204L28.3821 16.6164L27.772 15.3492Z" fill="#263238"/>
<path d="M28.149 25.9609C28.0291 25.6815 27.6693 25.5418 27.4295 25.7514L25.103 27.2741L19.263 15.3299C19.203 15.26 18.8433 14.5615 18.3036 14.1424C17.5841 13.5836 16.7567 13.7932 16.6368 13.863L15.4496 14.352L12.2837 11.9911L13.4709 9.35078C13.4709 9.35078 14.3703 7.47882 13.4709 6.15169C13.1711 5.5929 12.5116 5.10395 11.9839 4.96425C11.0246 4.82455 10.1971 5.3135 9.65751 6.22154L7.15121 11.7117C7.0313 11.9212 6.85142 12.4102 6.7315 12.7594C6.67154 12.8991 6.49166 13.3881 6.4317 13.9469L5.53231 20.1355L1.65894 21.9935C0.351825 22.692 0.819508 25.4021 2.90609 24.7036L7.15121 22.6221C7.27113 22.5523 7.45101 22.4126 7.57093 22.2729C7.57093 22.2729 7.63089 22.2729 7.63089 22.203C7.75081 22.0633 7.81077 21.9236 7.87073 21.7839C7.87073 21.7839 7.87073 21.7839 7.87073 21.7141L8.77012 18.4451L11.2165 21.5045L10.377 27.9726C10.3171 30.1239 12.7034 30.0541 12.9433 27.9726L13.7827 21.6442C13.8427 20.9457 13.6028 20.3171 13.423 19.912L13.1831 19.3532L10.7368 15.3997L11.4563 13.8072C12.7034 14.7152 14.3224 15.8887 14.5022 16.0284C15.2217 16.5872 15.9293 15.9585 16.0492 15.1902L17.0085 14.7711C17.0085 14.7711 17.4882 14.6314 17.788 14.9108C18.0878 15.1203 18.3276 15.5394 18.3876 15.6791L22.141 23.3905C21.6014 22.8317 20.8939 22.4126 20.1144 22.4126C18.4476 22.4126 17.0685 24.0051 17.0685 25.9609C17.0685 27.9027 18.4356 29.5093 20.1144 29.5093C21.7813 29.5093 23.1604 27.9167 23.1604 25.9609C23.1604 25.6815 23.1604 25.472 23.1004 25.1926L24.5874 28.1821C24.7073 28.3917 24.8872 28.5314 25.0671 28.5314C25.187 28.5314 25.2469 28.5314 25.3069 28.4615L28.053 26.6594C28.2089 26.6454 28.3169 26.2962 28.149 25.9609ZM20.1264 27.8049C19.251 27.8049 18.5435 26.9807 18.5435 25.9609C18.5435 24.9411 19.251 24.1169 20.1264 24.1169C21.0018 24.1169 21.7093 24.9411 21.7093 25.9609C21.7093 26.9807 21.0018 27.8049 20.1264 27.8049Z" fill="#263238"/>
<path d="M20.1252 27.2889C20.7546 27.2889 21.2649 26.6945 21.2649 25.9613C21.2649 25.2281 20.7546 24.6337 20.1252 24.6337C19.4958 24.6337 18.9856 25.2281 18.9856 25.9613C18.9856 26.6945 19.4958 27.2889 20.1252 27.2889Z" fill="#263238"/>
</svg>
