<svg width="85" height="68" viewBox="0 0 85 68" fill="none" xmlns="http://www.w3.org/2000/svg">
<path fill-rule="evenodd" clip-rule="evenodd" d="M16.8641 1.83884e-06L68.136 1.83884e-06C70.0001 -4.06612e-05 71.6087 -8.35583e-05 72.9402 0.0907389C74.3419 0.186406 75.7439 0.396783 77.1294 0.970533C80.2532 2.26457 82.7356 4.7467 84.0293 7.87079C84.6031 9.25599 84.8134 10.6581 84.9095 12.0599C85 13.3912 85 14.9998 85 16.864V51.136C85 53.0001 85 54.6087 84.9095 55.9402C84.8134 57.3418 84.6031 58.7439 84.0293 60.1294C82.7356 63.2532 80.2532 65.7356 77.1294 67.0293C75.7439 67.6031 74.3419 67.8134 72.9402 67.9095C71.6087 68 70.0001 68 68.136 68H16.864C14.9998 68 13.3912 68 12.0599 67.9095C10.6581 67.8134 9.25599 67.6031 7.87079 67.0293C4.7467 65.7356 2.26457 63.2532 0.970532 60.1294C0.396782 58.7439 0.186406 57.3418 0.0907389 55.9402C-8.35583e-05 54.6087 -4.06612e-05 53.0001 1.83884e-06 51.136V16.8641C-4.06612e-05 14.9998 -8.35583e-05 13.3912 0.0907389 12.0599C0.186406 10.6581 0.396782 9.25599 0.970532 7.87079C2.26457 4.7467 4.7467 2.26457 7.87079 0.970533C9.25599 0.396783 10.6581 0.186406 12.0599 0.0907389C13.3912 -8.35583e-05 14.9998 -4.06612e-05 16.8641 1.83884e-06ZM3.47639 4C5.02207 2.23357 10.249 3 15.8463 9.28073L39.7014 30.1538C41.3036 31.5558 43.6964 31.5558 45.2986 30.1538L74 6.5C75.7663 4.95436 80 1.5 81.5236 4C83.5 5.5 82.2663 7.73509 80.5 9.28073L50.8959 36.5508C46.0887 40.7571 38.9113 40.7571 34.1041 36.5508L1.5 6.74992C2.26186 5.5 1.93075 5.76647 3.47639 4Z" fill="white"/>
</svg>
