<svg width="81" height="70" viewBox="0 0 81 70" fill="none" xmlns="http://www.w3.org/2000/svg">
<g id="Group 1">
<path id="Vector" d="M12.3849 69.4597C11.3155 69.3943 10.312 68.8211 9.37452 67.74C8.43701 66.6589 7.76064 65.3577 7.34542 63.8366C7.31541 63.6911 7.29878 63.5432 7.29573 63.3947H7.27976C6.71193 64.6767 6.42831 65.7307 6.4289 66.5567C6.4289 66.6981 6.45848 67.0186 6.51763 67.5182C6.57678 68.0178 6.98313 68.5504 7.73669 69.116C7.21136 69.2777 6.66625 69.3669 6.1166 69.3811C5.79362 69.384 5.47328 69.323 5.17416 69.2016C4.87504 69.0803 4.60308 68.9009 4.37407 68.6741C3.87722 68.2028 3.62376 67.3741 3.61371 66.1882V65.9761C3.62836 64.7144 3.79336 63.459 4.10524 62.2361C4.41568 60.9445 4.79808 59.6712 5.25066 58.422C5.68599 57.2266 6.04089 56.3302 6.31534 55.7328C6.53241 55.3304 6.96332 55.0532 7.60804 54.9012C8.0855 54.7916 8.57402 54.737 9.06399 54.7386C9.24144 54.7386 9.54694 54.7548 9.98051 54.7872C10.4008 54.8148 10.8092 54.9375 11.1747 55.146C10.5643 56.1234 9.93703 57.2372 9.2929 58.4873C8.69907 59.6245 8.17349 60.7957 7.71894 61.9949C9.46384 61.8181 10.8819 61.3265 11.9732 60.5199C13.0645 59.7134 13.7791 58.8087 14.1168 57.806C14.2439 57.4501 14.3105 57.0755 14.3138 56.6978C14.3138 56.1434 14.1008 55.5593 13.675 54.9454C13.2491 54.3315 12.2947 53.9865 10.8118 53.9105H10.5173C9.45852 53.9105 8.30215 54.079 7.04819 54.416C5.77959 54.7597 4.60128 55.3743 3.59508 56.217C2.54814 57.0802 1.86083 58.2564 1.53314 59.7458C0.99843 59.3391 0.58072 58.7993 0.322066 58.1807C0.116235 57.6784 0.00698393 57.1421 0 56.5997C0 55.7955 0.365541 54.9398 1.09662 54.0325C1.8277 53.1252 3.0441 52.3401 4.74582 51.6773C6.56823 50.9803 8.50482 50.6267 10.457 50.6345C12.1362 50.6345 13.6199 50.9795 14.9082 51.6694C16.1965 52.3593 16.9273 53.5193 17.1006 55.1495L17.1165 55.6868C17.1165 57.0566 16.7974 58.2764 16.1592 59.3463C15.503 60.4348 14.5786 61.3382 13.4735 61.971C12.3145 62.6522 11.0335 63.1024 9.70191 63.2966C10.0464 64.0919 10.5665 64.7997 11.2235 65.3672C11.8319 65.9087 12.5702 66.2849 13.3671 66.4595C13.592 66.5131 13.8225 66.5403 14.0538 66.5408C14.6077 66.5351 15.15 66.3826 15.6251 66.0989C15.659 66.1701 15.6757 66.2481 15.6739 66.3269C15.6739 66.5661 15.5077 66.9137 15.1753 67.3697C14.7869 67.8829 14.333 68.3434 13.8249 68.7395C13.2582 69.1979 12.7783 69.4379 12.3849 69.4597Z" fill="black"/>
<path id="Vector_2" d="M24.2384 68.1572H24.1736C22.8534 68.017 22.1223 67.1695 21.9804 65.6147C21.5551 66.2775 21.0819 66.7883 20.5608 67.1471C20.0397 67.5059 19.5269 67.6853 19.0223 67.6853C18.1386 67.6853 17.446 67.4134 16.9444 66.8696C16.1997 66.086 15.8274 64.954 15.8274 63.4734C15.8411 62.9073 15.9005 62.3431 16.0048 61.7864C16.1231 61.0853 16.4068 60.3165 16.8557 59.4799C17.2765 58.6752 17.8684 57.9716 18.5902 57.4181C19.2944 56.8823 20.1592 56.5981 21.0452 56.6113C22.4737 56.6113 23.2917 57.2635 23.4993 58.5679L23.8267 57.8344C24.0674 57.3448 24.4711 57.0405 25.0378 56.9215C25.3127 56.8672 25.5924 56.84 25.8727 56.8402C26.2642 56.851 26.6534 56.9028 27.0341 56.9948C27.5024 57.0978 27.9468 57.2885 28.3436 57.5569C28.0165 58.0029 27.6347 58.6875 27.1982 59.6107C26.7617 60.5339 26.3524 61.5119 25.9703 62.5446C25.6376 63.4147 25.3707 64.3083 25.1718 65.2179C25.123 65.4539 25.0954 65.6938 25.0892 65.9346C25.0892 66.2828 25.1877 66.456 25.3838 66.456C26.0161 66.456 26.8507 65.5761 27.8876 63.8163C28.3679 63.0121 28.6681 62.4848 28.7881 62.2345C28.8419 62.1478 28.8854 62.1045 28.9185 62.1045C28.9736 62.1045 29.0011 62.1646 29.0011 62.2813C28.9236 63.1721 28.6261 64.0738 28.1085 64.9864C27.6353 65.8449 27.0118 66.6123 26.2675 67.2523C25.5589 67.8556 24.8825 68.1572 24.2384 68.1572ZM19.9025 66.4622C20.2733 66.4304 20.6687 66.0475 21.0887 65.3134C21.5427 64.5004 21.9076 63.6412 22.1773 62.7506C22.4932 61.7078 22.6511 60.8114 22.6511 60.0614C22.6511 59.4316 22.4547 59.1055 22.062 59.0831C21.703 59.1379 21.3513 59.4124 21.0071 59.9067C20.6232 60.4784 20.3098 61.0941 20.0737 61.7405C19.8029 62.4441 19.5921 63.1693 19.4438 63.9082C19.3526 64.3644 19.3033 64.828 19.2965 65.293C19.2965 65.4459 19.3133 65.6792 19.3462 65.9947C19.379 66.3102 19.5644 66.4596 19.9025 66.4596V66.4622Z" fill="black"/>
<path id="Vector_3" d="M35.9064 68.2368C35.6726 68.2252 35.4438 68.165 35.2348 68.06C34.9749 67.9421 34.7619 67.7412 34.6297 67.4891C34.2694 66.8582 34.0832 66.1435 34.0902 65.4177C34.0902 64.5269 34.2538 63.424 34.5809 62.109C34.6246 61.9322 34.6628 61.7529 34.6953 61.5708C33.7679 62.9724 32.8022 64.7166 31.7985 66.8034C31.5027 67.422 31.2848 67.8456 31.1446 68.0742C30.9076 68.18 30.6511 68.2357 30.3913 68.2377C30.1266 68.2232 29.8664 68.1634 29.6221 68.0609C29.3248 67.9563 29.0714 67.7553 28.9026 67.49C28.4004 66.6098 28.1493 65.6156 28.1493 64.5074C28.1493 64.4314 28.1576 64.0809 28.1741 63.4558C28.1907 62.8307 28.3572 61.9561 28.6736 60.832C28.9303 59.8813 29.2471 58.9477 29.6221 58.0368C29.7325 57.7968 29.901 57.5878 30.1123 57.4285C30.3236 57.2692 30.5713 57.1646 30.8332 57.1239C31.0872 57.0802 31.3446 57.0583 31.6024 57.0585C32.0211 57.069 32.4375 57.1238 32.8445 57.222C33.3239 57.3258 33.779 57.5193 34.186 57.792C33.7826 58.2922 33.2562 59.2213 32.6068 60.5793C31.9573 61.9373 31.4909 63.4749 31.2076 65.1923L31.385 64.8008C31.7346 63.986 32.1821 63.0381 32.7274 61.957C33.2552 60.9021 33.8883 59.9029 34.6172 58.9744C35.3312 58.0671 36.1084 57.4612 36.9489 57.1566C37.1962 57.0706 37.4562 57.0267 37.7181 57.0267C38.3398 57.0267 38.9833 57.2818 39.6487 57.792C39.2347 58.2922 38.7056 59.2213 38.0615 60.5793C37.4174 61.9373 36.9592 63.4749 36.6872 65.1923L36.736 65.1101C36.8673 64.8491 37.163 64.3142 37.6232 63.5053C38.0834 62.6964 38.6479 61.8 39.3169 60.8161C39.9387 59.8863 40.6424 59.0136 41.4197 58.2082C42.1561 57.4529 42.8679 56.9937 43.5552 56.8305L43.8214 56.8146C44.0984 56.8151 44.3725 56.87 44.6281 56.9761C44.8837 57.0823 45.1158 57.2376 45.3111 57.4332C45.6388 57.759 45.8023 58.1175 45.8017 58.5087C45.7984 58.7322 45.7542 58.9532 45.6713 59.1609C45.2129 60.0847 44.7737 61.0977 44.3538 62.2C43.9834 63.1421 43.6798 64.1089 43.4452 65.0934C43.3774 65.3657 43.339 65.6445 43.3308 65.9249C43.3308 66.2837 43.4346 66.4622 43.6413 66.4622C43.969 66.4622 44.3455 66.2286 44.7708 65.7615C45.3622 65.088 46.072 64.007 46.9001 62.5182C47.0199 62.2469 47.1131 62.1108 47.1778 62.1108C47.2426 62.1108 47.2603 62.1709 47.2603 62.2875C47.1829 63.1783 46.8853 64.08 46.3678 64.9926C45.8946 65.8511 45.2711 66.6185 44.5268 67.2585C43.8199 67.8577 43.1439 68.1572 42.4985 68.1572H42.4338C41.5282 68.06 40.9116 67.6526 40.5839 66.935C40.3443 66.3913 40.2246 65.7447 40.2246 64.9953C40.2246 64.7673 40.2541 64.3274 40.3133 63.6758C40.3724 63.0242 40.5715 62.1385 40.9104 61.0185C39.7653 62.5939 38.5217 64.6206 37.1796 67.0985C36.9175 67.5651 36.7268 67.8909 36.6073 68.0759C36.3871 68.1766 36.1486 68.2314 35.9064 68.2368Z" fill="black"/>
<path id="Vector_4" d="M50.4048 67.9434C49.8415 67.9286 49.2828 67.8379 48.7439 67.6739C48.1051 67.4972 47.5514 67.0382 47.083 66.297C46.6571 65.5365 46.4442 64.6074 46.4442 63.5098C46.4534 62.8067 46.5412 62.1069 46.7059 61.4233C46.8963 60.6235 47.2132 59.859 47.6446 59.1583C48.0713 58.4361 48.6456 57.8114 49.3303 57.3245C50.0072 56.8505 50.8178 56.6029 51.6451 56.6176C52.4093 56.6176 53.023 56.8132 53.4861 57.2044C53.9389 57.5792 54.2717 58.0777 54.4435 58.6386C54.5732 59.011 54.6394 59.4023 54.6395 59.7963C54.6395 60.739 54.3343 61.3476 53.7239 61.6221C53.4744 61.7399 53.2015 61.8003 52.9254 61.7989C52.6585 61.7963 52.3936 61.7525 52.1402 61.669C52.4997 61.4601 52.7803 61.1394 52.9387 60.7561C53.0734 60.4529 53.1458 60.126 53.1517 59.7946C53.1517 59.7407 53.1437 59.6125 53.1268 59.4119C53.11 59.2113 52.9556 59.0991 52.661 59.077C52.2245 59.1424 51.7853 59.5147 51.3435 60.194C50.8769 60.9285 50.5214 61.7274 50.2885 62.5651C50.1207 63.1484 50.0312 63.7514 50.0224 64.3581C50.034 64.7242 50.0696 65.089 50.1288 65.4504C50.1998 65.9388 50.568 66.2864 51.2335 66.4932C51.3504 66.5272 51.4718 66.5439 51.5937 66.5427C51.8894 66.5427 52.2659 66.4393 52.7231 66.2325C53.5411 65.8631 54.4683 64.6733 55.5046 62.6632C55.614 62.4782 55.6959 62.3397 55.7504 62.2478C55.8045 62.1594 55.848 62.1091 55.8808 62.1091C55.9358 62.1091 55.9624 62.1691 55.9624 62.2858C55.8861 63.166 55.5904 64.0462 55.0752 64.9264C54.7371 65.5605 54.3012 66.1379 53.7834 66.6373C53.1629 67.2193 52.3974 67.6251 51.5662 67.8126C51.1851 67.8987 50.7956 67.9426 50.4048 67.9434Z" fill="black"/>
<path id="Vector_5" d="M57.404 68.2198C57.1426 68.2198 56.8208 68.1385 56.4387 67.9759C55.4787 67.5735 54.9987 66.5519 54.9987 64.9111C54.9987 64.7485 55.0206 64.3031 55.0644 63.5749C55.1081 62.8467 55.3181 61.7568 55.6943 60.3051C56.0705 58.854 56.4742 57.5255 56.9054 56.3195C57.3366 55.1135 57.6802 54.2233 57.9364 53.6489C58.1653 53.1593 58.5633 52.855 59.1306 52.736C59.4055 52.6813 59.6851 52.654 59.9655 52.6547C60.3581 52.666 60.7485 52.7178 61.1304 52.8093C61.5992 52.9103 62.0456 53.0953 62.4479 53.3555C62.1753 53.7355 61.7334 54.6487 61.1224 56.095C60.5114 57.5414 59.9113 59.1224 59.3222 60.838C58.7307 62.5554 58.3489 64.0062 58.1768 65.1904L58.2265 65.1082C58.3448 64.859 58.6311 64.3267 59.0853 63.5113C59.5396 62.6959 60.0932 61.7995 60.7462 60.8221C61.3622 59.8925 62.0606 59.0197 62.833 58.2142C63.5694 57.4536 64.2756 56.9917 64.9517 56.8285L65.2303 56.8126C65.5071 56.8131 65.7811 56.8681 66.0366 56.9742C66.292 57.0804 66.524 57.2357 66.7191 57.4312C67.0462 57.7458 67.2097 58.0993 67.2097 58.4917C67.2071 58.7224 67.1569 58.9501 67.0625 59.1607C66.6153 60.0845 66.1817 61.0975 65.7618 62.1998C65.3927 63.1412 65.0903 64.1071 64.8568 65.0905C64.7895 65.3683 64.7511 65.6523 64.7423 65.938C64.7423 66.2862 64.8408 66.4594 65.0369 66.4594C65.3746 66.4594 65.7564 66.2258 66.1823 65.7586C66.8584 65.0092 67.5682 63.9281 68.3117 62.5153C68.4536 62.2443 68.5462 62.1085 68.5894 62.1079C68.6444 62.1079 68.6719 62.168 68.6719 62.2847C68.5838 63.1755 68.2836 64.0772 67.7714 64.9898C67.3036 65.8472 66.6859 66.6146 65.9472 67.2556C65.2398 67.8566 64.5643 68.1571 63.9208 68.1571H63.8551C62.9276 68.0598 62.3066 67.6524 61.9919 66.9349C61.7512 66.3911 61.6311 65.7445 61.6317 64.9951C61.6317 64.7671 61.6613 64.3273 61.7204 63.6757C61.7796 63.0241 61.9842 62.1383 62.3344 61.0183C61.5893 62.0293 60.9035 63.0824 60.2804 64.1723C59.6428 65.287 59.1105 66.2405 58.6834 67.033L58.1138 68.0731C57.8899 68.1701 57.6482 68.2201 57.404 68.2198Z" fill="black"/>
<path id="Vector_6" d="M76.1939 68.1571H76.1247C74.8045 68.0169 74.0737 67.1694 73.9323 65.6146C73.5064 66.2774 73.0318 66.7882 72.5083 67.147C71.9848 67.5058 71.472 67.6852 70.9698 67.6852C70.0862 67.6852 69.3935 67.4133 68.8919 66.8695C68.1538 66.0859 67.7847 64.9539 67.7847 63.4733C67.7984 62.9098 67.8577 62.3483 67.9621 61.7942C68.0804 61.0931 68.364 60.3243 68.813 59.4877C69.2335 58.6828 69.8255 57.9791 70.5475 57.4259C71.2513 56.89 72.1158 56.6057 73.0016 56.6191C74.4306 56.6191 75.249 57.2713 75.4566 58.5757L75.784 57.8422C76.0235 57.3526 76.4269 57.0483 76.9942 56.9293C77.2691 56.875 77.5488 56.8478 77.8291 56.848C78.2206 56.8588 78.6098 56.9106 78.9904 57.0026C79.4588 57.1056 79.9032 57.2964 80.3 57.5647C79.9723 58.0107 79.5905 58.6953 79.1546 59.6185C78.7187 60.5417 78.3096 61.5197 77.9275 62.5525C77.5946 63.4224 77.3276 64.316 77.129 65.2257C77.0806 65.4618 77.0532 65.7016 77.0474 65.9424C77.0474 66.2906 77.145 66.4639 77.342 66.4639C77.9743 66.4639 78.8086 65.5839 79.8449 63.8241C80.3222 63.017 80.6215 62.4877 80.7427 62.2361C80.7969 62.1477 80.8412 62.1062 80.874 62.1062C80.9282 62.1062 80.9557 62.1663 80.9557 62.2829C80.8794 63.1737 80.5819 64.0754 80.0631 64.988C79.5899 65.8463 78.9667 66.6136 78.223 67.2539C77.5132 67.856 76.8368 68.1571 76.1939 68.1571ZM71.8571 66.4594C72.2279 66.4276 72.6234 66.0447 73.0433 65.3106C73.4973 64.4976 73.8622 63.6384 74.1319 62.7478C74.4478 61.705 74.606 60.8086 74.6066 60.0586C74.6066 59.4288 74.4102 59.1027 74.0175 59.0803C73.6573 59.1351 73.3053 59.4096 72.9617 59.9039C72.5781 60.4757 72.2651 61.0914 72.0292 61.7377C71.7576 62.4411 71.5468 63.1663 71.3993 63.9055C71.3077 64.3616 71.2584 64.8251 71.252 65.2903C71.252 65.4431 71.268 65.6764 71.3008 65.9919C71.3336 66.3074 71.519 66.4594 71.8571 66.4594Z" fill="black"/>
<path id="Vector_7" d="M42.5207 19.9533C42.0257 19.879 41.7275 19.8508 41.4356 19.788C38.0881 19.0722 35.4025 21.0579 35.0857 24.4806C34.6927 28.7932 37.8131 32.2079 42.4498 32.5393C48.4244 32.9662 52.7364 29.3022 53.6121 23.4042C54.8231 15.2624 49.4492 3.92154 37.8849 2.24334C37.2781 2.15497 36.6526 2.18413 36.0528 2.06659C35.7361 2.0065 35.4566 1.75552 35.1611 1.59026C35.406 1.35961 35.626 0.963699 35.8993 0.923931C38.3578 0.563369 40.843 -0.100311 43.2882 0.0128062C52.5021 0.441415 60.1297 7.02078 61.9592 16.0401C63.4746 23.5103 61.2884 29.9023 55.7716 35.172C55.4167 35.5087 55.076 35.8551 54.7389 36.2077C54.7007 36.2484 54.7335 36.3562 54.7335 36.6558C55.163 36.5674 55.5711 36.5444 55.9322 36.403C65.5507 32.6242 69.7127 22.3888 65.4496 13.0125C65.3484 12.7889 65.194 12.5759 65.1559 12.3426C65.1142 12.0898 65.1789 11.8203 65.1976 11.5578C65.4637 11.5791 65.7716 11.5198 65.9854 11.6347C67.0315 12.195 68.0536 12.8004 69.0828 13.3916C72.0639 15.1042 75.053 16.8028 78.0234 18.534C81.9938 20.8485 81.9929 25.6083 78.0163 27.9015C72.1322 31.2995 66.2481 34.6983 60.332 38.0432C56.6056 40.1491 52.6521 41.4845 48.2895 41.3643C40.937 41.1628 33.5872 35.6598 31.8091 28.9682C31.1517 26.4938 31.1987 24.0281 32.1357 21.6332C33.3325 18.5685 36.673 16.8249 39.8058 17.5681C41.1331 17.873 41.9405 18.5322 42.5207 19.9533Z" fill="white"/>
<path id="Vector_8" d="M26.7359 9.75149C26.3517 9.83986 25.9489 9.88935 25.5825 10.0343C15.8664 13.9289 11.794 24.0732 16.1166 33.5539C16.294 33.948 16.263 34.4376 16.3286 34.8848C15.885 34.7584 15.3881 34.716 14.9978 34.4941C11.1164 32.2907 7.2454 30.0696 3.38474 27.8308C-0.370923 25.6498 -0.426819 20.8122 3.30667 18.6462C9.36293 15.1334 15.429 11.6374 21.5331 8.21026C25.1522 6.17768 29.0223 4.93428 33.2517 5.07302C40.6708 5.31605 47.9887 10.8173 49.7232 17.4841C50.323 19.7915 50.3106 22.1034 49.5556 24.3684C48.4217 27.7707 44.894 29.7149 41.5704 28.8409C40.2893 28.5033 39.5644 27.8812 39.0365 26.5264C39.5005 26.5795 39.8661 26.591 40.2165 26.6678C42.8525 27.2458 45.0635 26.0881 46.0421 23.6057C47.357 20.2679 45.9658 16.6923 42.6839 14.9734C36.4325 11.6983 29.1518 15.4533 27.9833 22.5567C26.4005 32.1708 32.7265 41.6912 42.2093 43.9227C43.1994 44.1551 44.2392 44.1701 45.2427 44.3548C45.6349 44.4264 45.9924 44.6853 46.3651 44.8585C46.0341 45.1051 45.7378 45.4586 45.366 45.5814C37.8893 48.0399 29.0409 45.4727 23.9739 39.3953C16.7873 30.7851 17.5982 18.7222 25.869 11.1531C26.2239 10.8296 26.5726 10.5009 26.924 10.1748C26.8613 10.0334 26.7986 9.89229 26.7359 9.75149Z" fill="black"/>
</g>
</svg>
