<svg width="84" height="84" viewBox="0 0 84 84" fill="none" xmlns="http://www.w3.org/2000/svg">
<path d="M80.4829 38.492C79.5534 38.492 78.662 38.1234 78.0048 37.4673C77.3475 36.8111 76.9783 35.9212 76.9783 34.9933C76.9709 27.5722 74.0146 20.4572 68.7584 15.2098C63.5021 9.96228 56.3752 7.01099 48.9418 7.00358C48.0123 7.00358 47.1209 6.63497 46.4637 5.97883C45.8064 5.3227 45.4372 4.43279 45.4372 3.50487C45.4372 2.57695 45.8064 1.68704 46.4637 1.03091C47.1209 0.37477 48.0123 0.00615657 48.9418 0.00615657C58.2333 0.0163434 67.1414 3.70575 73.7115 10.2649C80.2816 16.8241 83.9772 25.7173 83.9874 34.9933C83.9874 35.9212 83.6182 36.8111 82.961 37.4673C82.3037 38.1234 81.4123 38.492 80.4829 38.492ZM69.9692 34.9933C69.9692 29.4258 67.7538 24.0863 63.8104 20.1495C59.867 16.2127 54.5186 14.001 48.9418 14.001C48.0123 14.001 47.1209 14.3696 46.4637 15.0258C45.8064 15.6819 45.4372 16.5718 45.4372 17.4997C45.4372 18.4276 45.8064 19.3176 46.4637 19.9737C47.1209 20.6298 48.0123 20.9984 48.9418 20.9984C52.6596 20.9984 56.2252 22.4729 58.8542 25.0974C61.4831 27.722 62.96 31.2816 62.96 34.9933C62.96 35.9212 63.3293 36.8111 63.9865 37.4673C64.6437 38.1234 65.5351 38.492 66.4646 38.492C67.3941 38.492 68.2855 38.1234 68.9427 37.4673C69.5999 36.8111 69.9692 35.9212 69.9692 34.9933ZM77.6196 77.5516L80.8088 73.8815C82.8387 71.8485 83.9785 69.0951 83.9785 66.2246C83.9785 63.3541 82.8387 60.6006 80.8088 58.5676C80.7001 58.4592 72.2682 51.983 72.2682 51.983C70.2445 50.0599 67.5564 48.9891 64.7624 48.993C61.9685 48.9969 59.2834 50.0752 57.2651 52.004L50.5854 57.623C45.1329 55.3701 40.1799 52.0641 36.0109 47.8949C31.8419 43.7256 28.5389 38.7752 26.2917 33.3279L31.8991 26.6803C33.8326 24.6657 34.914 21.9846 34.9186 19.1945C34.9232 16.4044 33.8505 13.7198 31.9236 11.6989C31.9236 11.6989 25.4296 3.29145 25.321 3.18299C23.3215 1.17385 20.6104 0.0307246 17.7736 0.000610346C14.9369 -0.0295039 12.2021 1.05581 10.1602 3.02205L6.12998 6.52076C-17.68 34.0976 33.5918 84.8885 62.1259 83.9753C65.0073 83.992 67.8629 83.4321 70.524 82.3288C73.1851 81.2256 75.5978 79.6012 77.6196 77.5516Z" fill="white"/>
</svg>
