<svg width="74" height="88" viewBox="0 0 74 88" fill="none" xmlns="http://www.w3.org/2000/svg">
<path d="M37 0C27.1903 0.0107255 17.7855 3.8952 10.8489 10.8012C3.91244 17.7071 0.0107729 27.0705 0 36.837C0 56.2944 31.08 83.0049 34.6098 85.9887L37 88L39.3902 85.9887C42.92 83.0049 74 56.2944 74 36.837C73.9892 27.0705 70.0876 17.7071 63.1511 10.8012C56.2145 3.8952 46.8097 0.0107255 37 0ZM37 55.2556C33.341 55.2556 29.7643 54.1753 26.722 52.1515C23.6796 50.1276 21.3085 47.251 19.9082 43.8855C18.508 40.52 18.1416 36.8166 18.8555 33.2438C19.5693 29.6709 21.3313 26.3891 23.9185 23.8132C26.5058 21.2373 29.8022 19.4831 33.3908 18.7724C36.9795 18.0617 40.6992 18.4265 44.0796 19.8205C47.4601 21.2146 50.3494 23.5753 52.3822 26.6043C54.415 29.6332 55.5 33.1942 55.5 36.837C55.4941 41.7201 53.5431 46.4016 50.075 49.8544C46.6068 53.3073 41.9047 55.2497 37 55.2556Z" fill="white"/>
</svg>
